<?xml version="1.0" encoding="iso-8859-1"?>
<!-- Generator: Adobe Illustrator 19.0.0, SVG Export Plug-In . SVG Version: 6.00 Build 0)  -->
<svg version="1.1" id="Capa_1" xmlns="http://www.w3.org/2000/svg" xmlns:xlink="http://www.w3.org/1999/xlink" x="0px" y="0px"
	 viewBox="0 0 470.071 470.071" style="enable-background:new 0 0 470.071 470.071;" xml:space="preserve">
<g>
	<path style="fill:#FF8882;" d="M454.808,221.192c-1.702-16.189-9.206-31.218-21.132-42.317c-1.896-1.766-2.747-4.385-2.251-6.928
		c3.123-15.991,0.361-32.561-7.777-46.657c-7.952-13.773-20.859-20.757-38.364-20.757c-16.426,0-36.544,6.345-56.65,17.864
		c-2.564,1.469-5.748,1.296-8.137-0.44c-2.39-1.735-3.537-4.712-2.933-7.603c7.998-38.252,3.763-81.843-32.11-89.468
		c-15.879-3.375-32.618-0.845-46.775,7.021c-2.266,1.26-5.02,1.26-7.285,0c-14.156-7.865-30.896-10.396-46.775-7.021
		c-35.873,7.625-40.108,51.216-32.11,89.468c0.604,2.891-0.543,5.867-2.933,7.603s-5.574,1.908-8.137,0.44
		c-20.106-11.52-40.225-17.864-56.65-17.864c-17.505,0-30.412,6.983-38.364,20.757c-8.14,14.098-10.901,30.667-7.778,46.656
		c0.497,2.544-0.354,5.163-2.25,6.929c-11.927,11.101-19.431,26.129-21.132,42.317c-3.834,36.475,36.313,53.974,75.163,58.187
		c2.936,0.318,5.412,2.33,6.324,5.139c0.913,2.809,0.092,5.891-2.096,7.874c-28.953,26.245-51.147,64.001-26.606,91.256
		c10.892,12.097,25.796,19.844,41.97,21.814c2.572,0.313,4.8,1.933,5.894,4.282c6.871,14.772,18.845,26.554,33.715,33.174
		c5.595,2.49,11.241,3.754,16.783,3.754c22.581,0,45.679-21.405,61.784-57.258c1.211-2.693,3.889-4.427,6.842-4.427
		s5.631,1.733,6.842,4.427c16.105,35.852,39.202,57.256,61.785,57.258c5.542,0,11.187-1.263,16.781-3.754
		c14.871-6.62,26.845-18.401,33.716-33.174c1.094-2.35,3.321-3.969,5.894-4.282c16.173-1.971,31.077-9.718,41.97-21.814
		c24.54-27.256,2.347-65.011-26.606-91.256c-2.188-1.983-3.009-5.065-2.096-7.874c0.912-2.809,3.389-4.82,6.324-5.139
		C418.495,275.165,458.642,257.666,454.808,221.192z M274.666,378.136c-3.106,0-5.773-1.891-6.911-4.584
		c-0.087-0.205-0.162-0.416-0.231-0.63c-0.006-0.02-0.015-0.038-0.021-0.057c-0.22-0.706-0.338-1.456-0.338-2.234
		c0-4.142,3.358-7.5,7.5-7.5c2.484,0,4.68,1.213,6.044,3.073c0.912,1.241,1.457,2.77,1.457,4.431
		C282.166,374.776,278.806,378.136,274.666,378.136z M304.666,408.136c-3.106,0-5.773-1.891-6.911-4.584
		c-0.065-0.153-0.117-0.312-0.172-0.469c-0.025-0.073-0.057-0.144-0.08-0.218c-0.22-0.706-0.338-1.456-0.338-2.233
		c0-4.142,3.358-7.5,7.5-7.5c2.497,0,4.703,1.225,6.066,3.102c0.899,1.236,1.435,2.754,1.435,4.402
		C312.166,404.776,308.806,408.136,304.666,408.136z M306.246,232.226c-4.764,1.548-9.731,0.568-13.488-2.178
		c-0.483-0.353-0.951-0.727-1.391-1.137c-0.523,0.333-1.09,0.612-1.706,0.813l-32.14,10.443c-0.115,4.507-1.558,8.688-3.957,12.164
		l19.867,27.343c0.381,0.524,0.675,1.084,0.903,1.66c5.238-0.645,10.66,1.494,13.982,6.066c4.261,5.865,3.655,13.781-1.054,18.93
		c-0.672,0.736-1.429,1.415-2.266,2.024c-5.025,3.653-11.558,3.727-16.565,0.71c-0.777-0.468-1.513-1.019-2.205-1.635
		c-0.051-0.045-0.106-0.083-0.156-0.129c-0.1-0.091-0.19-0.197-0.288-0.291c-0.622-0.601-1.21-1.251-1.736-1.975
		c-1.218-1.675-2.038-3.518-2.478-5.416c-0.762-3.28-0.386-6.722,1.027-9.752c-0.478-0.395-0.917-0.852-1.298-1.377l-19.862-27.337
		c-2.03,0.603-4.176,0.932-6.399,0.932s-4.369-0.329-6.399-0.932l-19.862,27.337c-0.381,0.525-0.82,0.982-1.298,1.377
		c1.412,3.029,1.789,6.472,1.027,9.752c-0.44,1.898-1.26,3.741-2.478,5.416c-0.526,0.724-1.114,1.374-1.736,1.975
		c-0.098,0.094-0.188,0.2-0.288,0.291c-0.05,0.046-0.106,0.084-0.156,0.129c-0.692,0.616-1.428,1.166-2.205,1.635
		c-5.007,3.018-11.54,2.943-16.565-0.71c-0.838-0.609-1.594-1.288-2.266-2.024c-4.709-5.149-5.315-13.065-1.054-18.93
		c3.322-4.572,8.744-6.711,13.982-6.066c0.228-0.576,0.522-1.136,0.903-1.66l19.867-27.343c-2.399-3.477-3.842-7.657-3.957-12.164
		l-32.141-10.443c-0.616-0.2-1.183-0.48-1.706-0.812c-0.44,0.41-0.908,0.784-1.391,1.137c-3.756,2.746-8.724,3.726-13.488,2.178
		c-7.88-2.56-12.19-11.03-9.63-18.91c2.56-7.87,11.02-12.19,18.9-9.63c3.059,0.994,5.57,2.884,7.36,5.278
		c1.357,1.813,2.298,3.915,2.732,6.148c0.619,0.038,1.241,0.145,1.857,0.345l32.148,10.446c2.626-3.417,6.208-6.06,10.344-7.527
		v-33.79c0-0.648,0.091-1.274,0.245-1.874c-2.908-1.611-5.225-4.157-6.542-7.236c-0.007-0.017-0.017-0.033-0.024-0.05
		c-0.76-1.795-1.179-3.769-1.179-5.84c0-0.303,0.028-0.599,0.045-0.897c0.013-0.212,0.011-0.427,0.032-0.637
		c0.605-5.822,4.508-10.62,9.792-12.546c1.603-0.585,3.326-0.921,5.13-0.921c1.823,0,3.562,0.342,5.178,0.938
		c5.26,1.938,9.142,6.724,9.74,12.499c0.026,0.24,0.024,0.455,0.037,0.667c0.018,0.298,0.045,0.594,0.045,0.896
		c0,2.073-0.42,4.046-1.179,5.841c-0.007,0.017-0.017,0.033-0.024,0.05c-1.316,3.079-3.633,5.625-6.542,7.236
		c0.155,0.6,0.245,1.226,0.245,1.874v33.79c4.136,1.467,7.717,4.11,10.344,7.527l32.147-10.446c0.616-0.2,1.24-0.307,1.858-0.345
		c0.433-2.234,1.375-4.335,2.732-6.148c1.79-2.394,4.301-4.285,7.36-5.278c7.88-2.56,16.34,1.76,18.9,9.63
		C318.436,221.195,314.126,229.665,306.246,232.226z M409.717,230.629c-2.154,0-4.09-0.913-5.458-2.367
		c-1.263-1.341-2.043-3.144-2.043-5.136c0-4.14,3.36-7.5,7.5-7.5c2.847,0,5.325,1.589,6.595,3.927
		c0.578,1.063,0.906,2.281,0.906,3.577C417.217,227.271,413.859,230.629,409.717,230.629z"/>
	<path style="fill:#1C1918;" d="M469.726,219.623c-1.937-18.426-10.021-35.621-22.892-48.854
		c2.633-18.271-0.933-36.936-10.196-52.979c-10.673-18.485-28.431-28.257-51.354-28.257c-15.395,0-32.635,4.379-50.498,12.756
		c2.437-19.487,1.295-37.165-3.407-51.767c-7.057-21.917-21.859-35.855-42.806-40.308c-5.665-1.204-11.45-1.815-17.195-1.815
		c-12.554,0-25.032,2.925-36.342,8.489c-11.31-5.564-23.788-8.489-36.342-8.489c-5.745,0-11.53,0.611-17.195,1.815
		c-20.946,4.452-35.749,18.391-42.806,40.308c-4.702,14.602-5.844,32.279-3.407,51.767c-17.863-8.377-35.104-12.756-50.498-12.756
		c-22.924,0-40.682,9.771-51.354,28.257c-9.264,16.046-12.83,34.709-10.197,52.979c-12.87,13.234-20.955,30.43-22.891,48.854
		c-2.238,21.297,6.442,39.683,25.105,53.168c12.435,8.984,28.895,15.533,48.18,19.238c-13.424,14.334-22.892,29.308-27.669,43.884
		c-7.173,21.881-3.39,41.857,10.939,57.771c12.396,13.768,29.044,22.927,47.235,26.069c8.609,16.329,22.465,29.332,39.39,36.867
		c7.527,3.352,15.227,5.051,22.884,5.051c25.742,0,50.248-18.876,68.626-52.34c18.378,33.463,42.883,52.338,68.626,52.34
		c7.658,0,15.357-1.699,22.884-5.051c16.925-7.535,30.78-20.538,39.39-36.867c18.19-3.143,34.838-12.302,47.234-26.069
		c14.329-15.914,18.112-35.891,10.94-57.771c-4.778-14.578-14.245-29.551-27.669-43.885c19.285-3.705,35.745-10.254,48.18-19.238
		C463.284,259.306,471.964,240.92,469.726,219.623z M379.645,279.379c-2.936,0.318-5.412,2.33-6.324,5.139
		c-0.913,2.809-0.092,5.891,2.096,7.874c28.953,26.245,51.146,64,26.606,91.256c-10.893,12.097-25.797,19.844-41.97,21.814
		c-2.572,0.313-4.8,1.933-5.894,4.282c-6.871,14.772-18.845,26.554-33.716,33.174c-5.595,2.491-11.239,3.754-16.779,3.754
		c-22.585-0.002-45.682-21.406-61.787-57.258c-1.211-2.693-3.889-4.427-6.842-4.427s-5.631,1.733-6.842,4.427
		c-16.105,35.853-39.203,57.258-61.784,57.258c-5.542,0-11.188-1.264-16.783-3.754c-14.87-6.62-26.844-18.401-33.715-33.174
		c-1.094-2.35-3.321-3.969-5.894-4.282c-16.174-1.971-31.078-9.718-41.97-21.814c-24.541-27.255-2.347-65.011,26.606-91.256
		c2.188-1.983,3.009-5.065,2.096-7.874c-0.912-2.809-3.389-4.82-6.324-5.139c-38.85-4.214-78.997-21.713-75.163-58.187
		c1.701-16.188,9.205-31.217,21.132-42.317c1.896-1.766,2.747-4.385,2.25-6.929c-3.123-15.989-0.361-32.559,7.778-46.656
		c7.952-13.773,20.859-20.757,38.364-20.757c16.426,0,36.544,6.345,56.65,17.864c2.563,1.468,5.747,1.295,8.137-0.44
		s3.537-4.712,2.933-7.603c-7.998-38.252-3.763-81.843,32.11-89.468c15.879-3.375,32.619-0.845,46.775,7.021
		c2.266,1.26,5.02,1.26,7.285,0c14.157-7.865,30.896-10.396,46.775-7.021c35.873,7.625,40.108,51.216,32.11,89.468
		c-0.604,2.891,0.543,5.867,2.933,7.603c2.389,1.736,5.572,1.909,8.137,0.44c20.106-11.52,40.225-17.864,56.65-17.864
		c17.505,0,30.412,6.983,38.364,20.757c8.139,14.097,10.9,30.666,7.777,46.657c-0.496,2.543,0.354,5.162,2.251,6.928
		c11.926,11.1,19.43,26.128,21.132,42.317C458.642,257.666,418.495,275.165,379.645,279.379z"/>
	<path style="fill:#1C1918;" d="M304.664,408.131c4.142,0,7.5-3.358,7.5-7.5c0-1.645-0.536-3.161-1.434-4.398
		c-1.363-1.877-3.569-3.102-6.066-3.102c-4.142,0-7.5,3.358-7.5,7.5c0,0.778,0.119,1.528,0.338,2.233
		c0.023,0.074,0.054,0.145,0.08,0.218c0.055,0.158,0.107,0.317,0.172,0.469C298.893,406.243,301.558,408.131,304.664,408.131z"/>
	<path style="fill:#1C1918;" d="M274.664,378.131c4.142,0,7.5-3.358,7.5-7.5c0-1.658-0.545-3.185-1.456-4.427
		c-1.365-1.86-3.56-3.073-6.044-3.073c-4.142,0-7.5,3.358-7.5,7.5c0,0.778,0.119,1.528,0.338,2.234
		c0.006,0.02,0.015,0.038,0.021,0.057c0.069,0.214,0.144,0.425,0.231,0.63C268.893,376.243,271.558,378.131,274.664,378.131z"/>
	<path style="fill:#1C1918;" d="M409.717,215.629c-4.142,0-7.5,3.358-7.5,7.5c0,1.988,0.779,3.791,2.042,5.133
		c1.368,1.454,3.304,2.367,5.458,2.367c4.142,0,7.5-3.358,7.5-7.5c0-1.295-0.328-2.513-0.906-3.577
		C415.04,217.216,412.564,215.629,409.717,215.629z"/>
	<path style="fill:#FFFFFF;" d="M242.536,218.376v-33.79c0-0.648-0.091-1.274-0.245-1.874c-2.151,1.191-4.622,1.874-7.255,1.874
		c-2.633,0-5.104-0.683-7.255-1.874c-0.155,0.6-0.245,1.226-0.245,1.874v33.79c2.347-0.833,4.871-1.29,7.5-1.29
		S240.188,217.544,242.536,218.376z"/>
	<path style="fill:#FFFFFF;" d="M217.192,225.903l-32.148-10.446c-0.616-0.2-1.239-0.307-1.857-0.345
		c0.468,2.414,0.354,4.975-0.459,7.479s-2.226,4.643-4.024,6.32c0.523,0.332,1.089,0.612,1.706,0.812l32.141,10.443
		c-0.005-0.193-0.015-0.385-0.015-0.58C212.536,234.442,214.275,229.698,217.192,225.903z"/>
	<path style="fill:#FFFFFF;" d="M216.507,252.331l-19.867,27.343c-0.381,0.524-0.675,1.084-0.903,1.66c2.44,0.3,4.84,1.2,6.97,2.748
		c2.131,1.549,3.73,3.555,4.77,5.785c0.478-0.395,0.917-0.852,1.298-1.377l19.862-27.337
		C223.656,259.673,219.393,256.514,216.507,252.331z"/>
	<path style="fill:#FFFFFF;" d="M241.435,261.154l19.862,27.337c0.381,0.525,0.82,0.982,1.298,1.377
		c1.04-2.23,2.638-4.237,4.77-5.785c2.13-1.547,4.53-2.448,6.97-2.748c-0.228-0.576-0.522-1.136-0.903-1.66l-19.867-27.343
		C250.678,256.514,246.415,259.673,241.435,261.154z"/>
	<path style="fill:#FFFFFF;" d="M287.344,222.591c-0.813-2.504-0.928-5.065-0.459-7.479c-0.619,0.038-1.242,0.145-1.858,0.345
		l-32.147,10.446c2.917,3.794,4.656,8.538,4.656,13.683c0,0.195-0.01,0.387-0.015,0.58l32.14-10.443
		c0.617-0.2,1.183-0.48,1.706-0.813C289.57,227.233,288.157,225.094,287.344,222.591z"/>
	<path style="fill:#FFC743;" d="M242.536,239.586c0-4.136-3.364-7.5-7.5-7.5s-7.5,3.364-7.5,7.5s3.364,7.5,7.5,7.5
		S242.536,243.722,242.536,239.586z"/>
	<path style="fill:#1C1918;" d="M252.879,225.903c-2.626-3.417-6.208-6.06-10.344-7.527c-2.347-0.833-4.871-1.29-7.5-1.29
		s-5.153,0.458-7.5,1.29c-4.136,1.467-7.717,4.11-10.344,7.527c-2.917,3.794-4.656,8.538-4.656,13.683
		c0,0.195,0.01,0.387,0.015,0.58c0.115,4.507,1.558,8.688,3.957,12.164c2.886,4.183,7.149,7.343,12.13,8.823
		c2.03,0.603,4.176,0.932,6.399,0.932s4.369-0.329,6.399-0.932c4.981-1.48,9.244-4.64,12.13-8.823
		c2.399-3.477,3.842-7.657,3.957-12.164c0.005-0.193,0.015-0.385,0.015-0.58C257.536,234.442,255.796,229.698,252.879,225.903z
		 M227.536,239.586c0-4.136,3.364-7.5,7.5-7.5s7.5,3.364,7.5,7.5s-3.364,7.5-7.5,7.5S227.536,243.722,227.536,239.586z"/>
	<path style="fill:#FF382E;" d="M242.29,182.713c2.908-1.611,5.225-4.157,6.542-7.236c0.007-0.017,0.017-0.033,0.024-0.05
		c0.76-1.795,1.179-3.769,1.179-5.84c0-0.303-0.028-0.599-0.045-0.897c-0.013-0.212-0.011-0.427-0.032-0.637
		c-0.603-5.805-4.484-10.591-9.745-12.529c-1.616-0.595-3.355-0.937-5.178-0.937c-1.805,0-3.528,0.335-5.13,0.92
		c-5.284,1.927-9.187,6.724-9.788,12.516c-0.026,0.24-0.024,0.455-0.037,0.667c-0.018,0.298-0.045,0.594-0.045,0.896
		c0,2.072,0.42,4.046,1.179,5.841c0.007,0.017,0.017,0.033,0.024,0.05c1.316,3.079,3.633,5.625,6.542,7.236
		c2.151,1.191,4.622,1.874,7.255,1.874C237.668,184.587,240.14,183.904,242.29,182.713z"/>
	<path style="fill:#FF382E;" d="M182.727,222.591c0.813-2.504,0.928-5.065,0.459-7.479c-0.433-2.234-1.375-4.335-2.732-6.148
		c-1.79-2.392-4.301-4.281-7.358-5.274c-7.879-2.56-16.341,1.752-18.901,9.631c-2.56,7.879,1.752,16.341,9.631,18.901
		c4.763,1.548,9.73,0.571,13.487-2.174c0.483-0.353,0.951-0.727,1.391-1.137C180.501,227.234,181.914,225.094,182.727,222.591z"/>
	<path style="fill:#FF382E;" d="M202.707,284.082c-2.13-1.547-4.53-2.448-6.97-2.748c-5.238-0.645-10.66,1.494-13.982,6.066
		c-4.261,5.865-3.655,13.781,1.054,18.93c0.672,0.735,1.427,1.414,2.265,2.021c5.026,3.652,11.56,3.729,16.566,0.712
		c0.777-0.468,1.513-1.019,2.205-1.635c0.051-0.045,0.106-0.083,0.156-0.129c0.1-0.091,0.19-0.197,0.288-0.291
		c0.622-0.601,1.21-1.252,1.736-1.976c1.217-1.675,2.037-3.518,2.478-5.415c0.762-3.28,0.386-6.723-1.027-9.752
		C206.437,287.638,204.839,285.631,202.707,284.082z"/>
	<path style="fill:#FF382E;" d="M262.594,289.868c-1.412,3.029-1.789,6.472-1.027,9.752c0.441,1.897,1.261,3.74,2.478,5.415
		c0.526,0.724,1.114,1.375,1.736,1.976c0.098,0.094,0.188,0.2,0.288,0.291c0.05,0.046,0.106,0.084,0.156,0.129
		c0.692,0.616,1.428,1.166,2.205,1.635c5.007,3.017,11.54,2.94,16.566-0.712c0.837-0.608,1.593-1.287,2.265-2.021
		c4.709-5.149,5.315-13.065,1.054-18.93c-3.322-4.572-8.744-6.711-13.982-6.066c-2.44,0.3-4.84,1.2-6.97,2.748
		C265.232,285.631,263.634,287.638,262.594,289.868z"/>
	<path style="fill:#FF382E;" d="M306.245,232.221c7.879-2.56,12.191-11.022,9.631-18.901c-2.56-7.879-11.022-12.191-18.901-9.631
		c-3.057,0.993-5.568,2.882-7.358,5.274c-1.357,1.813-2.298,3.915-2.732,6.148c-0.468,2.414-0.354,4.975,0.459,7.479
		c0.813,2.503,2.226,4.643,4.023,6.32c0.44,0.41,0.908,0.784,1.391,1.137C296.515,232.793,301.482,233.769,306.245,232.221z"/>
</g>
<g>
</g>
<g>
</g>
<g>
</g>
<g>
</g>
<g>
</g>
<g>
</g>
<g>
</g>
<g>
</g>
<g>
</g>
<g>
</g>
<g>
</g>
<g>
</g>
<g>
</g>
<g>
</g>
<g>
</g>
</svg>
