<svg id="Capa_1" enable-background="new 0 0 511 511" height="512" viewBox="0 0 511 511" width="512" xmlns="http://www.w3.org/2000/svg"><path d="m7.5 203.5c0-22.951 17.575-41.789 40-43.811v-.189h10.332c-1.51-5.071-2.332-10.438-2.332-16 0-30.928 25.072-56 56-56 28.432 0 51.898 21.193 55.503 48.641 2.771-.422 5.608-.641 8.497-.641 30.928 0 56 25.072 56 56s-25.072 56-56 56h-128v-.189c-22.425-2.022-40-20.86-40-43.811z" fill="#e1dee1"/><path d="m199.5 215.5h-128v-.189c-22.425-2.022-40-20.859-40-43.811 0-2.562.231-5.069.651-7.511-14.597 7.159-24.651 22.155-24.651 39.511 0 22.951 17.575 41.789 40 43.811v.189h128c25.594 0 47.161-17.176 53.845-40.625-8.641 5.456-18.87 8.625-29.845 8.625z" fill="#c2bec4"/><path d="m503.5 147.5c0-22.951-17.575-41.789-40-43.811v-.189h-10.332c1.51-5.071 2.332-10.438 2.332-16 0-30.928-25.072-56-56-56-28.432 0-51.898 21.193-55.503 48.641-2.771-.422-5.608-.641-8.497-.641-30.928 0-56 25.072-56 56s25.072 56 56 56h128v-.189c22.425-2.022 40-20.86 40-43.811z" fill="#e1dee1"/><path d="m487.5 159.311v.189h-128c-30.928 0-56-25.072-56-56 0-5.334.762-10.488 2.155-15.375-15.711 9.918-26.155 27.422-26.155 47.375 0 30.928 25.072 56 56 56h128v-.189c19.921-1.796 36.004-16.867 39.349-36.3-4.706 2.308-9.882 3.807-15.349 4.3z" fill="#c2bec4"/><path d="m399.5 271.5c-12.63 0-24.733 2.253-35.932 6.376 7.6-13.748 11.932-29.555 11.932-46.376 0-53.019-42.981-96-96-96s-96 42.981-96 96c0 .442.011.881.017 1.321-14.829-6.005-31.034-9.321-48.017-9.321-70.692 0-128 57.308-128 128s57.308 128 128 128h264c57.438 0 104-46.562 104-104s-46.562-104-104-104z" fill="#f0eff0"/><path d="m431.5 431.5h-264c-70.692 0-128-57.308-128-128 0-15.884 2.901-31.088 8.19-45.123-24.742 23.34-40.19 56.425-40.19 93.123 0 70.692 57.308 128 128 128h264c46.497 0 85.863-30.516 99.174-72.612-18.122 15.35-41.565 24.612-67.174 24.612z" fill="#d1ced3"/><path d="m399.5 264c-7.616 0-15.142.762-22.507 2.273 3.954-11.11 6.007-22.897 6.007-34.773 0-11.349-1.842-22.274-5.232-32.5h85.732c.861 0 1.688-.145 2.458-.412 12.067-1.513 23.188-7.243 31.474-16.259 8.75-9.521 13.568-21.89 13.568-34.829s-4.818-25.308-13.568-34.829c-8.286-9.016-19.406-14.747-31.474-16.259-.77-.267-1.597-.412-2.458-.412h-1.07c.379-2.813.57-5.652.57-8.5 0-35.014-28.486-63.5-63.5-63.5-29.307 0-54.615 20.204-61.587 48.045-.805-.03-1.609-.045-2.413-.045-32.42 0-59.462 24.43-63.08 56.244-19.262 1.308-37.095 7.906-52.052 18.355-12.442-12.427-29.538-19.223-47.282-18.554-6.971-27.841-32.279-48.045-61.586-48.045-35.014 0-63.5 28.486-63.5 63.5 0 2.848.191 5.687.571 8.5h-1.071c-.861 0-1.688.145-2.458.412-12.068 1.513-23.188 7.243-31.474 16.259-8.749 9.521-13.568 21.89-13.568 34.829s4.819 25.308 13.568 34.829c7.468 8.126 17.241 13.571 27.932 15.677-25.569 24.66-41.5 59.25-41.5 97.494 0 74.715 60.785 135.5 135.5 135.5h180.305c4.143 0 7.5-3.358 7.5-7.5s-3.357-7.5-7.5-7.5h-180.305c-66.444 0-120.5-54.056-120.5-120.5s54.056-120.5 120.5-120.5c15.62 0 30.828 2.952 45.201 8.772 2.697 1.092 5.865.492 7.977-1.51 1.97-1.868 2.322-4.189 2.322-6.763 0-48.799 39.701-88.5 88.5-88.5s88.5 39.701 88.5 88.5c0 14.955-3.802 29.736-10.995 42.748-1.516 2.742-1.168 6.136.872 8.514 2.04 2.376 5.343 3.236 8.282 2.153 10.661-3.924 21.878-5.914 33.341-5.914 53.21 0 96.5 43.29 96.5 96.5s-43.29 96.5-96.5 96.5h-47.695c-4.143 0-7.5 3.358-7.5 7.5s3.357 7.5 7.5 7.5h47.695c61.481 0 111.5-50.019 111.5-111.5s-50.019-111.5-111.5-111.5zm-223.094-41.708c-13.184-4.179-26.9-6.292-40.906-6.292-28.677 0-55.295 8.962-77.219 24.222-.572-.14-1.166-.222-1.781-.222h-7.322c-.327-.075-.663-.128-1.005-.159-18.911-1.705-33.173-17.328-33.173-36.341s14.262-34.636 33.173-36.341c.342-.031.678-.084 1.005-.159h8.654c4.933 0 8.597-4.907 7.188-9.64-1.34-4.504-2.02-9.167-2.02-13.86 0-26.743 21.757-48.5 48.5-48.5 24.249 0 44.913 18.107 48.067 42.118.388 2.96 2.567 5.46 5.445 6.252 1.651.455 3.189.147 4.85-.045 1.871-.216 3.755-.325 5.638-.325 12.394 0 24.216 4.724 33.166 13.112-17.994 16.918-29.957 40.181-32.26 66.18zm111.13-93.982c3.484-23.489 23.761-41.31 47.964-41.31 2.464 0 4.943.187 7.368.556 4.098.623 8.025-2.334 8.564-6.438 3.154-24.011 23.819-42.118 48.068-42.118 26.743 0 48.5 21.757 48.5 48.5 0 4.694-.68 9.357-2.021 13.86-.853 2.866.124 6.05 2.438 7.944 1.593 1.304 3.468 1.696 5.468 1.696 2.982 0 5.979-.107 8.94.159 18.913 1.705 33.175 17.328 33.175 36.341s-14.262 34.636-33.174 36.341c-.342.031-.678.084-1.004.159h-90.385c-16.075-30.988-47.358-52.871-83.901-55.69z"/></svg>