<svg id="Capa_1" enable-background="new 0 0 511 511" height="512" viewBox="0 0 511 511" width="512" xmlns="http://www.w3.org/2000/svg"><circle cx="255.5" cy="275.5" fill="#f9a949" r="112"/><path d="m7.5 375.5c0-22.951 17.575-41.789 40-43.811v-.189h10.332c-1.51-5.071-2.332-10.438-2.332-16 0-30.928 25.072-56 56-56 28.432 0 51.898 21.193 55.503 48.641 2.771-.422 5.608-.641 8.497-.641 30.928 0 56 25.072 56 56s-25.072 56-56 56h-128v-.189c-22.425-2.022-40-20.86-40-43.811z" fill="#f0eff0"/><path d="m191.5 387.5h-128v-.189c-22.425-2.022-40-20.859-40-43.811 0-.66.018-1.316.047-1.97-9.798 8.068-16.047 20.286-16.047 33.97 0 22.951 17.575 41.789 40 43.811v.189h128c28.302 0 51.687-21 55.456-48.266-10.123 10.052-24.063 16.266-39.456 16.266z" fill="#d1ced3"/><path d="m503.5 191.5c0-22.951-17.575-41.789-40-43.811v-.189h-10.332c1.51-5.071 2.332-10.438 2.332-16 0-30.928-25.072-56-56-56-28.432 0-51.898 21.193-55.503 48.641-2.771-.422-5.608-.641-8.497-.641-30.928 0-56 25.072-56 56s25.072 56 56 56h128v-.189c22.425-2.022 40-20.86 40-43.811z" fill="#f0eff0"/><path d="m479.5 203.311v.189h-128c-30.928 0-56-25.072-56-56 0-2.625.195-5.204.544-7.734-10.216 10.145-16.544 24.199-16.544 39.734 0 30.928 25.072 56 56 56h128v-.189c21.78-1.964 38.981-19.79 39.953-41.841-6.636 5.463-14.898 9.024-23.953 9.841z" fill="#d1ced3"/><path d="m255.5 139c4.143 0 7.5-3.358 7.5-7.5v-16c0-4.142-3.357-7.5-7.5-7.5s-7.5 3.358-7.5 7.5v16c0 4.142 3.357 7.5 7.5 7.5z"/><path d="m177.005 154.542c2.204 3.819 7.388 4.904 10.946 2.288 3.037-2.234 3.928-6.525 2.045-9.788l-8-13.856c-2.07-3.587-6.659-4.817-10.245-2.745-3.587 2.071-4.816 6.658-2.745 10.245z"/><path d="m113.186 201.995 13.856 8c1.182.682 2.471 1.006 3.743 1.006 2.592 0 5.113-1.346 6.502-3.751 2.071-3.587.842-8.174-2.745-10.245l-13.856-8c-3.589-2.072-8.175-.842-10.245 2.745-2.072 3.587-.842 8.174 2.745 10.245z"/><path d="m255.5 412c-4.143 0-7.5 3.358-7.5 7.5v16c0 4.142 3.357 7.5 7.5 7.5s7.5-3.358 7.5-7.5v-16c0-4.142-3.357-7.5-7.5-7.5z"/><path d="m333.995 396.458c-2.07-3.587-6.659-4.817-10.245-2.745-3.587 2.071-4.816 6.658-2.745 10.245l8 13.856c2.204 3.819 7.388 4.904 10.946 2.288 3.038-2.234 3.928-6.525 2.045-9.788z"/><path d="m397.814 349.005-13.856-8c-3.589-2.072-8.175-.842-10.245 2.745-2.071 3.587-.842 8.174 2.745 10.245l13.856 8c3.827 2.209 8.854.545 10.623-3.492 1.514-3.453.14-7.615-3.123-9.498z"/><path d="m415.5 268h-16c-4.143 0-7.5 3.358-7.5 7.5s3.357 7.5 7.5 7.5h16c4.143 0 7.5-3.358 7.5-7.5s-3.357-7.5-7.5-7.5z"/><path d="m497.432 156.671c-8.286-9.016-19.406-14.747-31.474-16.259-.771-.267-1.598-.412-2.458-.412h-1.071c.38-2.813.571-5.652.571-8.5 0-35.014-28.486-63.5-63.5-63.5-29.307 0-54.615 20.204-61.587 48.045-.805-.03-1.609-.045-2.413-.045-27.371 0-50.752 17.408-59.656 41.734-6.691-1.147-13.516-1.734-20.344-1.734-30.347 0-59.278 11.39-81.465 32.071-19.858 18.51-32.682 42.909-36.687 69.457-7.935-3.558-16.696-5.528-25.848-5.528-35.014 0-63.5 28.486-63.5 63.5 0 2.848.191 5.687.571 8.5h-1.071c-.86 0-1.688.145-2.458.412-12.067 1.513-23.188 7.243-31.474 16.259-8.75 9.521-13.568 21.89-13.568 34.829s4.818 25.308 13.568 34.829c8.286 9.016 19.406 14.747 31.474 16.259.771.267 1.598.412 2.458.412h76.364c4.143 0 7.5-3.358 7.5-7.5s-3.357-7.5-7.5-7.5h-74.686c-.326-.075-.662-.128-1.004-.159-18.912-1.705-33.174-17.328-33.174-36.341s14.262-34.636 33.174-36.341c.342-.031.678-.084 1.004-.159h8.654c4.933 0 8.598-4.908 7.188-9.64-1.34-4.503-2.02-9.166-2.02-13.86 0-26.743 21.757-48.5 48.5-48.5 24.249 0 44.914 18.107 48.067 42.118.389 2.959 2.566 5.46 5.444 6.252 1.651.455 3.191.146 4.852-.045 1.871-.216 3.754-.325 5.637-.325 26.743 0 48.5 21.757 48.5 48.5s-21.757 48.5-48.5 48.5h-15.896c-4.143 0-7.5 3.358-7.5 7.5s3.357 7.5 7.5 7.5h15.896c24.505 0 45.798-13.962 56.381-34.341 7.741 1.551 15.667 2.341 23.619 2.341 65.893 0 119.5-53.607 119.5-119.5 0-11.07-1.529-21.967-4.501-32.5h93.001c.86 0 1.688-.145 2.458-.412 12.067-1.513 23.188-7.243 31.474-16.259 8.75-9.521 13.568-21.89 13.568-34.829s-4.818-25.308-13.568-34.829zm-137.432 118.829c0 57.622-46.879 104.5-104.5 104.5-6.146 0-12.273-.538-18.283-1.597 1.155-4.783 1.783-9.77 1.783-14.903 0-35.014-28.486-63.5-63.5-63.5-.804 0-1.608.015-2.413.045-3.405-13.596-11.19-25.362-21.671-33.852 4.725-53.493 50.167-95.193 104.084-95.193 5.675 0 11.344.465 16.911 1.369-.263 2.343-.411 4.719-.411 7.131 0 35.014 28.486 63.5 63.5 63.5h19.325c3.42 10.457 5.175 21.376 5.175 32.5zm102.826-47.659c-.342.031-.678.084-1.004.159h-126.322c-26.743 0-48.5-21.757-48.5-48.5s21.757-48.5 48.5-48.5c2.464 0 4.943.187 7.368.556 1.994.303 4.023-.209 5.635-1.419 1.611-1.211 2.667-3.02 2.93-5.019 3.153-24.011 23.818-42.118 48.067-42.118 26.743 0 48.5 21.757 48.5 48.5 0 4.694-.68 9.357-2.021 13.86-.676 2.27-.239 4.725 1.176 6.624 1.416 1.898 3.645 3.017 6.013 3.017h8.654c.326.075.662.128 1.004.159 18.912 1.704 33.174 17.327 33.174 36.34s-14.262 34.636-33.174 36.341z"/></svg>