<svg id="Capa_1" enable-background="new 0 0 511 511" height="512" viewBox="0 0 511 511" width="512" xmlns="http://www.w3.org/2000/svg"><circle cx="167.5" cy="175.5" fill="#f9a949" r="112"/><path d="m399.5 287.5c-12.63 0-24.733 2.253-35.932 6.376 7.6-13.748 11.932-29.555 11.932-46.376 0-53.019-42.981-96-96-96s-96 42.981-96 96c0 .442.011.881.017 1.321-14.829-6.005-31.034-9.321-48.017-9.321-70.692 0-128 57.308-128 128s57.308 128 128 128h264c57.438 0 104-46.562 104-104s-46.562-104-104-104z" fill="#f0eff0"/><path d="m431.5 447.5h-264c-70.692 0-128-57.308-128-128 0-15.884 2.901-31.088 8.19-45.123-24.742 23.34-40.19 56.425-40.19 93.123 0 70.692 57.308 128 128 128h264c46.497 0 85.863-30.516 99.174-72.612-18.122 15.35-41.565 24.612-67.174 24.612z" fill="#d1ced3"/><path d="m167.5 39c4.142 0 7.5-3.358 7.5-7.5v-16c0-4.142-3.358-7.5-7.5-7.5s-7.5 3.358-7.5 7.5v16c0 4.142 3.358 7.5 7.5 7.5z"/><path d="m89.005 54.542c2.204 3.818 7.388 4.904 10.946 2.288 3.038-2.234 3.928-6.525 2.045-9.788l-8-13.856c-2.071-3.588-6.658-4.816-10.245-2.745s-4.816 6.658-2.745 10.245z"/><path d="m25.186 101.995 13.856 8c1.181.682 2.471 1.006 3.743 1.006 2.592 0 5.113-1.346 6.502-3.751 2.071-3.587.842-8.174-2.745-10.245l-13.856-8c-3.587-2.072-8.175-.842-10.245 2.745-2.071 3.587-.842 8.174 2.745 10.245z"/><path d="m7.5 183h16c4.142 0 7.5-3.358 7.5-7.5s-3.358-7.5-7.5-7.5h-16c-4.142 0-7.5 3.358-7.5 7.5s3.358 7.5 7.5 7.5z"/><path d="m39.042 241.005-13.856 8c-3.263 1.883-4.637 6.045-3.123 9.499 1.769 4.036 6.797 5.702 10.623 3.492l13.856-8c3.587-2.071 4.816-6.658 2.745-10.245s-6.657-4.817-10.245-2.746z"/><path d="m292.214 111.001c1.272 0 2.562-.324 3.743-1.006l13.856-8c3.587-2.071 4.816-6.658 2.745-10.245-2.071-3.588-6.658-4.817-10.245-2.745l-13.856 8c-2.79 1.611-4.263 4.93-3.582 8.079.74 3.414 3.847 5.917 7.339 5.917z"/><path d="m235.75 57.288c2.862 1.653 6.577 1.2 8.955-1.093.911-.879 1.485-1.99 2.11-3.072 1.853-3.21 3.707-6.42 5.56-9.63.54-.936 1.081-1.872 1.621-2.807 2.071-3.587.842-8.174-2.745-10.245-3.588-2.072-8.174-.842-10.245 2.745l-8 13.856c-2.072 3.588-.843 8.175 2.744 10.246z"/><path d="m399.5 280c-7.616 0-15.142.762-22.507 2.273 3.954-11.11 6.007-22.897 6.007-34.773 0-55.969-44.656-101.698-100.209-103.442-14.12-51.962-61.177-88.058-115.291-88.058-65.893 0-119.5 53.607-119.5 119.5 0 26.093 8.583 51.499 24.27 72.189-42.944 22.756-72.27 67.92-72.27 119.811 0 74.715 60.785 135.5 135.5 135.5h180.304c4.142 0 7.5-3.358 7.5-7.5s-3.358-7.5-7.5-7.5h-180.304c-66.444 0-120.5-54.056-120.5-120.5s54.056-120.5 120.5-120.5c15.62 0 30.828 2.952 45.201 8.772 2.328.943 4.974.658 7.048-.76 2.074-1.417 3.3-3.779 3.267-6.291l-.007-.439c-.004-.261-.009-.521-.009-.782 0-48.799 39.701-88.5 88.5-88.5s88.5 39.701 88.5 88.5c0 14.955-3.802 29.736-10.995 42.748-1.516 2.742-1.168 6.136.872 8.514 2.04 2.376 5.342 3.236 8.283 2.153 10.66-3.924 21.877-5.915 33.34-5.915 53.21 0 96.5 43.29 96.5 96.5s-43.29 96.5-96.5 96.5h-47.696c-4.142 0-7.5 3.358-7.5 7.5s3.358 7.5 7.5 7.5h47.696c61.481 0 111.5-50.019 111.5-111.5s-50.019-111.5-111.5-111.5zm-223.094-41.708c-13.184-4.179-26.9-6.292-40.906-6.292-17.346 0-33.94 3.281-49.198 9.247-15.027-18.544-23.302-41.808-23.302-65.747 0-57.622 46.878-104.5 104.5-104.5 46.175 0 86.479 30.046 99.878 73.709-48.369 5.669-86.652 44.82-90.972 93.583z"/></svg>