<?xml version="1.0" encoding="iso-8859-1"?>
<!-- Generator: Adobe Illustrator 19.0.0, SVG Export Plug-In . SVG Version: 6.00 Build 0)  -->
<svg version="1.1" id="Capa_1" xmlns="http://www.w3.org/2000/svg" xmlns:xlink="http://www.w3.org/1999/xlink" x="0px" y="0px"
	 viewBox="0 0 470.002 470.002" style="enable-background:new 0 0 470.002 470.002;" xml:space="preserve">
<g>
	<path style="fill:#FFB914;" d="M156.253,155.637l157.496,0c3.159,0,5.979,1.979,7.053,4.949
		c16.03,44.316,41.268,84.602,73.585,118.346c2.709-4.845,5.208-9.823,7.476-14.928c-3.749-1.577-5.57-5.864-4.067-9.665
		c8.099-20.477,12.206-42.123,12.206-64.338c0-96.495-78.505-175-175-175s-175,78.505-175,175c0,22.216,4.106,43.862,12.206,64.337
		c1.504,3.801-0.318,8.088-4.067,9.665c2.268,5.104,4.767,10.082,7.476,14.928c32.317-33.744,57.555-74.03,73.585-118.346
		C150.275,157.615,153.095,155.637,156.253,155.637z"/>
	<path style="fill:#68E1F2;" d="M402.501,440.001c-4.142,0-7.5-3.358-7.5-7.5s3.358-7.5,7.5-7.5h60v-45h-60
		c-4.142,0-7.5-3.358-7.5-7.5h-15c0,4.142-3.358,7.5-7.5,7.5h-365v15h395c4.142,0,7.5,3.358,7.5,7.5s-3.358,7.5-7.5,7.5h-395v45h60
		c4.142,0,7.5,3.358,7.5,7.5h15c0-4.142,3.358-7.5,7.5-7.5h170c4.142,0,7.5,3.358,7.5,7.5h15c0-4.142,3.358-7.5,7.5-7.5h165v-15
		H402.501z M372.501,440.001h-305c-4.142,0-7.5-3.358-7.5-7.5s3.358-7.5,7.5-7.5h305c4.142,0,7.5,3.358,7.5,7.5
		S376.643,440.001,372.501,440.001z"/>
	<path style="fill:#FFFFFF;" d="M336.132,227.351c-10.84-17.974-20.11-36.942-27.603-56.714l-147.056,0
		c-7.493,19.772-16.763,38.74-27.603,56.715l27.132,21.352l32.358-25.464c2.722-2.141,6.555-2.142,9.276,0l32.359,25.464
		l32.358-25.464c2.722-2.141,6.555-2.142,9.276,0l32.364,25.465L336.132,227.351z"/>
	<path style="fill:#19ABBF;" d="M380.001,372.501h15c0-4.142,3.358-7.5,7.5-7.5h60v-15c-1.306,0-2.621-0.336-3.819-1.046
		c-46.139-27.303-85.227-64.726-114.488-108.861l-30.562,24.047c-1.36,1.071-3,1.606-4.638,1.606c-1.639,0-3.277-0.535-4.638-1.606
		l-32.363-25.465l-32.359,25.465c-2.722,2.142-6.555,2.142-9.276,0l-32.359-25.464l-32.358,25.464c-2.722,2.141-6.556,2.141-9.276,0
		l-30.556-24.046C96.547,284.23,57.459,321.653,11.32,348.956c-1.201,0.711-2.518,1.04-3.819,1.039v15.007h365
		C376.643,365.001,380.001,368.359,380.001,372.501z"/>
	<path style="fill:#1C1918;" d="M11.32,348.956c46.138-27.302,85.227-64.725,114.488-108.86l30.556,24.046
		c2.721,2.141,6.555,2.141,9.276,0l32.358-25.464l32.359,25.464c2.722,2.142,6.555,2.142,9.276,0l32.359-25.465l32.363,25.465
		c1.361,1.071,2.999,1.606,4.638,1.606c1.638,0,3.277-0.535,4.638-1.606l30.562-24.047c29.261,44.135,68.35,81.558,114.488,108.861
		c1.198,0.709,2.514,1.046,3.812,1.046c2.569-0.003,5.063-1.318,6.462-3.682c2.109-3.564,0.93-8.165-2.635-10.274
		c-26.625-15.756-50.791-35.039-71.934-57.115c-32.317-33.744-57.555-74.029-73.585-118.346c-1.074-2.97-3.894-4.949-7.053-4.949
		l-157.496,0c-3.158,0-5.979,1.979-7.053,4.949c-16.03,44.316-41.268,84.602-73.585,118.346
		c-21.143,22.076-45.309,41.359-71.934,57.115c-3.565,2.109-4.745,6.709-2.635,10.274c1.399,2.365,3.894,3.671,6.455,3.674
		C8.802,349.996,10.12,349.666,11.32,348.956z M267.354,223.239l-32.358,25.464l-32.359-25.464c-2.722-2.142-6.555-2.141-9.276,0
		l-32.358,25.464l-27.132-21.352c10.84-17.974,20.11-36.942,27.603-56.715l147.056,0c7.493,19.772,16.763,38.74,27.603,56.714
		l-27.138,21.353l-32.364-25.465C273.909,221.098,270.076,221.099,267.354,223.239z"/>
	<path style="fill:#1C1918;" d="M395.001,372.501c0,4.142,3.358,7.5,7.5,7.5h60c4.142,0,7.5-3.358,7.5-7.5s-3.358-7.5-7.5-7.5h-60
		C398.359,365.001,395.001,368.359,395.001,372.501z"/>
	<path style="fill:#1C1918;" d="M380.001,372.501c0-4.142-3.358-7.5-7.5-7.5h-365c-4.142,0-7.5,3.358-7.5,7.5s3.358,7.5,7.5,7.5h365
		C376.643,380.001,380.001,376.643,380.001,372.501z"/>
	<path style="fill:#0B7786;" d="M410.001,402.501c0-4.142-3.358-7.5-7.5-7.5h-395c-4.142,0-7.5,3.358-7.5,7.5s3.358,7.5,7.5,7.5h395
		C406.643,410.001,410.001,406.643,410.001,402.501z"/>
	<path style="fill:#0B7786;" d="M395.001,432.501c0,4.142,3.358,7.5,7.5,7.5h60c4.142,0,7.5-3.358,7.5-7.5s-3.358-7.5-7.5-7.5h-60
		C398.359,425.001,395.001,428.359,395.001,432.501z"/>
	<path style="fill:#0B7786;" d="M372.501,425.001h-305c-4.142,0-7.5,3.358-7.5,7.5s3.358,7.5,7.5,7.5h305c4.142,0,7.5-3.358,7.5-7.5
		S376.643,425.001,372.501,425.001z"/>
	<path style="fill:#0B7786;" d="M290.001,462.501c0,4.142,3.358,7.5,7.5,7.5h165c4.142,0,7.5-3.358,7.5-7.5s-3.358-7.5-7.5-7.5h-165
		C293.359,455.001,290.001,458.359,290.001,462.501z"/>
	<path style="fill:#0B7786;" d="M267.501,455.001h-170c-4.142,0-7.5,3.358-7.5,7.5s3.358,7.5,7.5,7.5h170c4.142,0,7.5-3.358,7.5-7.5
		S271.643,455.001,267.501,455.001z"/>
	<path style="fill:#0B7786;" d="M67.501,455.001h-60c-4.142,0-7.5,3.358-7.5,7.5s3.358,7.5,7.5,7.5h60c4.142,0,7.5-3.358,7.5-7.5
		S71.643,455.001,67.501,455.001z"/>
	<path style="fill:#1C1918;" d="M72.207,254.339c-8.099-20.476-12.206-42.122-12.206-64.337c0-96.495,78.505-175,175-175
		s175,78.505,175,175c0,22.215-4.106,43.861-12.206,64.338c-1.503,3.8,0.318,8.088,4.067,9.665c0.05,0.021,0.097,0.047,0.149,0.068
		c0.906,0.358,1.839,0.528,2.757,0.528c2.987,0,5.811-1.797,6.976-4.744c8.797-22.24,13.257-45.743,13.257-69.854
		c0-104.766-85.233-190-190-190s-190,85.234-190,190c0,24.113,4.46,47.615,13.257,69.855c1.523,3.852,5.883,5.74,9.733,4.215
		c0.051-0.02,0.098-0.046,0.149-0.068C71.889,262.427,73.71,258.139,72.207,254.339z"/>
</g>
<g>
</g>
<g>
</g>
<g>
</g>
<g>
</g>
<g>
</g>
<g>
</g>
<g>
</g>
<g>
</g>
<g>
</g>
<g>
</g>
<g>
</g>
<g>
</g>
<g>
</g>
<g>
</g>
<g>
</g>
</svg>
