<?xml version="1.0" encoding="iso-8859-1"?>
<!-- Generator: Adobe Illustrator 19.0.0, SVG Export Plug-In . SVG Version: 6.00 Build 0)  -->
<svg version="1.1" id="Capa_1" xmlns="http://www.w3.org/2000/svg" xmlns:xlink="http://www.w3.org/1999/xlink" x="0px" y="0px"
	 viewBox="0 0 470 470" style="enable-background:new 0 0 470 470;" xml:space="preserve">
<g>
	<path style="fill:#FF8882;" d="M383.678,169.257v60h57.127c-3.339-12.925-15.098-22.5-29.051-22.5c-4.143,0-7.5-3.357-7.5-7.5
		s3.357-7.5,7.5-7.5c13.953,0,25.712-9.575,29.051-22.5H383.678z"/>
	<path style="fill:#68E1F2;" d="M411.754,316.243c-4.143,0-7.5-3.357-7.5-7.5s3.357-7.5,7.5-7.5c13.953,0,25.712-9.575,29.051-22.5
		h-57.127v60h57.127C437.466,325.818,425.707,316.243,411.754,316.243z"/>
	<path style="fill:#19ABBF;" d="M368.678,338.743v-60H155.135v37.5c0,4.143-3.358,7.5-7.5,7.5c-0.005,0-0.005,15-0.005,15H368.678z"
		/>
	<path style="fill:#FF382E;" d="M368.678,229.257v-60H155.135v37.5c0,4.143-3.358,7.5-7.5,7.5c-0.005,0-0.005,15-0.005,15H368.678z"
		/>
	<path style="fill:#FFFFFF;" d="M155.135,69.257v22.5c0,4.143-3.358,7.5-7.5,7.5c-0.005,0-0.005,15-0.005,15h124.093v-45H155.135z"
		/>
	<path style="fill:#FFFFFF;" d="M147.63,323.743c-4.14-0.003-7.495-3.359-7.495-7.5v-37.5h-15v60h22.495V323.743z"/>
	<path style="fill:#FFFFFF;" d="M147.63,214.257c-4.14-0.003-7.495-3.359-7.495-7.5v-37.5h-15v60h22.495V214.257z"/>
	<path style="fill:#FFC743;" d="M140.135,91.757v-22.5h-15v45h22.495v-15C143.491,99.254,140.135,95.898,140.135,91.757z"/>
	<path style="fill:#1C1918;" d="M436.604,308.743c12.136-8.068,20.149-21.866,20.149-37.5c0-4.143-3.357-7.5-7.5-7.5H117.635
		c-0.277,0-0.55,0.017-0.819,0.047c-0.063,0.007-0.125,0.02-0.188,0.029c-0.209,0.028-0.417,0.062-0.62,0.107
		c-0.071,0.016-0.141,0.036-0.211,0.054c-0.194,0.049-0.385,0.103-0.573,0.167c-0.074,0.025-0.146,0.053-0.219,0.08
		c-0.182,0.068-0.36,0.143-0.535,0.224c-0.04,0.019-0.082,0.032-0.122,0.051l-66.122,32.24v-85.484l66.122,32.24
		c0.04,0.02,0.083,0.033,0.123,0.052c0.174,0.081,0.352,0.156,0.534,0.224c0.073,0.028,0.146,0.055,0.22,0.081
		c0.188,0.064,0.379,0.118,0.573,0.167c0.071,0.018,0.14,0.039,0.211,0.054c0.203,0.045,0.411,0.078,0.62,0.107
		c0.063,0.008,0.125,0.022,0.188,0.029c0.269,0.029,0.542,0.047,0.819,0.047h331.619c4.162,0,7.52-3.357,7.52-7.5
		c0-0.203-0.008-0.405-0.023-0.604c-0.203-15.385-8.166-28.931-20.146-36.896c12.136-8.068,20.149-21.866,20.149-37.5
		c0-4.143-3.357-7.5-7.5-7.5H117.635c-0.277,0-0.55,0.017-0.819,0.047c-0.063,0.007-0.125,0.02-0.188,0.029
		c-0.209,0.028-0.417,0.062-0.62,0.107c-0.071,0.016-0.141,0.036-0.211,0.054c-0.194,0.049-0.385,0.103-0.573,0.167
		c-0.074,0.025-0.146,0.053-0.219,0.08c-0.182,0.068-0.36,0.143-0.535,0.224c-0.04,0.019-0.082,0.032-0.122,0.051l-66.122,32.24
		v-84.523l66.683,26.011c0.066,0.026,0.135,0.044,0.201,0.068c0.132,0.047,0.263,0.095,0.399,0.135c0.099,0.029,0.2,0.052,0.3,0.077
		c0.13,0.032,0.258,0.067,0.39,0.092c0.125,0.024,0.252,0.04,0.378,0.058c0.11,0.016,0.218,0.036,0.33,0.046
		c0.241,0.023,0.484,0.037,0.727,0.037h331.619c4.143,0,7.5-3.357,7.5-7.5s-3.357-7.5-7.5-7.5h-162.53v-45h162.53
		c4.143,0,7.5-3.357,7.5-7.5s-3.357-7.5-7.5-7.5H117.635c-0.243,0-0.486,0.013-0.727,0.037c-0.111,0.011-0.22,0.031-0.33,0.046
		c-0.126,0.018-0.253,0.033-0.378,0.058c-0.132,0.026-0.261,0.06-0.39,0.092c-0.1,0.025-0.201,0.048-0.3,0.077
		c-0.136,0.04-0.267,0.088-0.4,0.135c-0.066,0.024-0.135,0.042-0.201,0.068L48.227,80.781V53.952c11.528-3.274,20-13.889,20-26.452
		c0-15.163-12.336-27.5-27.5-27.5s-27.5,12.337-27.5,27.5c0,12.563,8.472,23.178,20,26.452V462.5c0,4.143,3.358,7.5,7.5,7.5
		s7.5-3.357,7.5-7.5V320.744l66.122,32.24c0.04,0.02,0.083,0.033,0.123,0.052c0.174,0.081,0.352,0.156,0.534,0.224
		c0.073,0.028,0.146,0.055,0.22,0.081c0.188,0.064,0.379,0.118,0.573,0.167c0.071,0.018,0.14,0.039,0.211,0.054
		c0.203,0.045,0.411,0.078,0.62,0.107c0.063,0.008,0.125,0.022,0.188,0.029c0.269,0.029,0.542,0.047,0.819,0.047h331.619
		c4.162,0,7.52-3.357,7.52-7.5c0-0.203-0.008-0.405-0.023-0.604C456.547,330.254,448.584,316.708,436.604,308.743z M411.754,191.757
		c-4.143,0-7.5,3.357-7.5,7.5s3.357,7.5,7.5,7.5c13.953,0,25.712,9.575,29.051,22.5h-57.127v-60h57.127
		C437.466,182.182,425.707,191.757,411.754,191.757z M125.135,169.257h15v37.5c0,4.141,3.355,7.497,7.495,7.5
		c4.147,0,7.505-3.357,7.505-7.5v-37.5h213.542v60H125.135V169.257z M110.135,173.758v50.998l-52.296-25.499L110.135,173.758z
		 M125.135,114.257v-45h15v22.5c0,4.141,3.355,7.497,7.495,7.5c4.147,0,7.505-3.357,7.505-7.5v-22.5h116.588v45H125.135z
		 M110.135,72.733v38.048L61.365,91.757L110.135,72.733z M40.727,15c6.893,0,12.5,5.607,12.5,12.5S47.619,40,40.727,40
		s-12.5-5.607-12.5-12.5S33.834,15,40.727,15z M125.135,278.743h15v37.5c0,4.141,3.355,7.497,7.495,7.5
		c4.147,0,7.505-3.357,7.505-7.5v-37.5h213.542v60H125.135V278.743z M383.678,338.743v-60h57.127
		c-3.339,12.925-15.098,22.5-29.051,22.5c-4.143,0-7.5,3.357-7.5,7.5s3.357,7.5,7.5,7.5c13.953,0,25.712,9.575,29.051,22.5H383.678z
		 M110.135,283.244v50.998l-52.296-25.499L110.135,283.244z"/>
	<path style="fill:#1C1918;" d="M449.254,84.257h-140.03c-4.143,0-7.5,3.357-7.5,7.5s3.357,7.5,7.5,7.5h140.03
		c4.143,0,7.5-3.357,7.5-7.5S453.396,84.257,449.254,84.257z"/>
	<path style="fill:#655F5E;" d="M40.727,40c6.893,0,12.5-5.607,12.5-12.5S47.619,15,40.727,15s-12.5,5.607-12.5,12.5
		S33.834,40,40.727,40z"/>
</g>
<g>
</g>
<g>
</g>
<g>
</g>
<g>
</g>
<g>
</g>
<g>
</g>
<g>
</g>
<g>
</g>
<g>
</g>
<g>
</g>
<g>
</g>
<g>
</g>
<g>
</g>
<g>
</g>
<g>
</g>
</svg>
