<?xml version="1.0" encoding="iso-8859-1"?>
<!-- Generator: Adobe Illustrator 19.0.0, SVG Export Plug-In . SVG Version: 6.00 Build 0)  -->
<svg version="1.1" id="Capa_1" xmlns="http://www.w3.org/2000/svg" xmlns:xlink="http://www.w3.org/1999/xlink" x="0px" y="0px"
	 viewBox="0 0 470 470" style="enable-background:new 0 0 470 470;" xml:space="preserve">
<g>
	<path style="fill:#FFFFFF;" d="M67.5,335H455V30H45v312.5h15C60,338.357,63.358,335,67.5,335z M250,86.532
		c17.638,0,34.645,5.231,49.181,15.128c3.424,2.331,4.31,6.996,1.979,10.42c-0.065,0.096-0.139,0.183-0.208,0.275
		c3.904,3.229,7.497,6.821,10.726,10.726c0.092-0.069,0.179-0.143,0.276-0.209c3.424-2.329,8.089-1.444,10.421,1.979
		c9.896,14.537,15.127,31.544,15.127,49.181c0,48.248-39.252,87.5-87.5,87.5c-48.248,0-87.5-39.252-87.5-87.5
		S201.752,86.532,250,86.532z"/>
	<path style="fill:#FF382E;" d="M290.739,114.059c-12.037-8.194-26.125-12.526-40.739-12.526c-39.977,0-72.5,32.523-72.5,72.5
		s32.523,72.5,72.5,72.5s72.5-32.523,72.5-72.5c0-14.613-4.332-28.701-12.527-40.739c-2.265-3.327-1.484-7.822,1.704-10.212
		c-3.229-3.904-6.821-7.497-10.726-10.726C298.562,115.544,294.069,116.326,290.739,114.059z"/>
	<path style="fill:#1C1918;" d="M250,261.532c48.248,0,87.5-39.252,87.5-87.5c0-17.637-5.231-34.644-15.127-49.181
		c-2.332-3.424-6.997-4.309-10.421-1.979c-0.096,0.066-0.183,0.14-0.276,0.209c-3.188,2.39-3.968,6.885-1.704,10.212
		c8.195,12.038,12.527,26.126,12.527,40.739c0,39.977-32.523,72.5-72.5,72.5s-72.5-32.523-72.5-72.5s32.523-72.5,72.5-72.5
		c14.614,0,28.702,4.332,40.739,12.526c3.33,2.267,7.822,1.485,10.212-1.703c0.069-0.092,0.143-0.179,0.208-0.275
		c2.331-3.424,1.445-8.089-1.979-10.42C284.645,91.764,267.638,86.532,250,86.532c-48.248,0-87.5,39.252-87.5,87.5
		S201.752,261.532,250,261.532z"/>
	<path style="fill:#D19884;" d="M30,447.5v-425c0-4.136-3.364-7.5-7.5-7.5S15,18.364,15,22.5v425c0,4.136,3.364,7.5,7.5,7.5
		S30,451.636,30,447.5z"/>
	<path style="fill:#1C1918;" d="M462.5,15H43.71C40.614,6.271,32.277,0,22.5,0C10.093,0,0,10.094,0,22.5v425
		C0,459.906,10.093,470,22.5,470S45,459.906,45,447.5V30h410v305H67.5c-4.142,0-7.5,3.357-7.5,7.5s3.358,7.5,7.5,7.5h395
		c4.143,0,7.5-3.357,7.5-7.5v-320C470,18.357,466.643,15,462.5,15z M15,447.5v-425c0-4.136,3.364-7.5,7.5-7.5s7.5,3.364,7.5,7.5v425
		c0,4.136-3.364,7.5-7.5,7.5S15,451.636,15,447.5z"/>
</g>
<g>
</g>
<g>
</g>
<g>
</g>
<g>
</g>
<g>
</g>
<g>
</g>
<g>
</g>
<g>
</g>
<g>
</g>
<g>
</g>
<g>
</g>
<g>
</g>
<g>
</g>
<g>
</g>
<g>
</g>
</svg>
