<svg id="Capa_1" enable-background="new 0 0 511 511" height="512" viewBox="0 0 511 511" width="512" xmlns="http://www.w3.org/2000/svg"><path d="m399.5 143.5c-12.63 0-24.733 2.253-35.932 6.376 7.6-13.748 11.932-29.555 11.932-46.376 0-53.019-42.981-96-96-96s-96 42.981-96 96c0 .442.011.881.017 1.321-14.829-6.006-31.035-9.321-48.017-9.321-70.692 0-128 57.308-128 128s57.308 128 128 128h264c57.438 0 104-46.562 104-104s-46.562-104-104-104z" fill="#d1ced3"/><path d="m431.5 303.5h-264c-70.692 0-128-57.308-128-128 0-15.884 2.901-31.088 8.19-45.123-24.742 23.34-40.19 56.425-40.19 93.123 0 70.692 57.308 128 128 128h264c46.497 0 85.863-30.516 99.174-72.612-18.122 15.35-41.565 24.612-67.174 24.612z" fill="#b3aeb5"/><path d="m399.5 136c-7.616 0-15.142.762-22.507 2.273 3.954-11.11 6.007-22.897 6.007-34.773 0-57.07-46.43-103.5-103.5-103.5-53.966 0-98.419 41.52-103.094 94.292-13.184-4.179-26.9-6.292-40.906-6.292-74.715 0-135.5 60.785-135.5 135.5s60.785 135.5 135.5 135.5h180.304c4.142 0 7.5-3.358 7.5-7.5s-3.358-7.5-7.5-7.5h-180.304c-66.444 0-120.5-54.056-120.5-120.5s54.056-120.5 120.5-120.5c15.62 0 30.828 2.952 45.201 8.772 2.328.943 4.974.658 7.048-.76 2.074-1.417 3.3-3.779 3.267-6.291l-.007-.439c-.004-.261-.009-.521-.009-.782 0-48.799 39.701-88.5 88.5-88.5s88.5 39.701 88.5 88.5c0 14.955-3.802 29.736-10.995 42.748-1.516 2.742-1.168 6.136.872 8.514 2.04 2.377 5.342 3.236 8.283 2.153 10.66-3.924 21.877-5.915 33.34-5.915 53.21 0 96.5 43.29 96.5 96.5s-43.29 96.5-96.5 96.5h-47.696c-4.142 0-7.5 3.358-7.5 7.5s3.358 7.5 7.5 7.5h47.696c61.481 0 111.5-50.019 111.5-111.5s-50.019-111.5-111.5-111.5z"/><path d="m159.5 384c-4.142 0-7.5 3.358-7.5 7.5v8c0 4.142 3.358 7.5 7.5 7.5s7.5-3.358 7.5-7.5v-8c0-4.142-3.358-7.5-7.5-7.5z"/><path d="m159.5 430.4c-4.142 0-7.5 3.358-7.5 7.5v19.2c0 4.142 3.358 7.5 7.5 7.5s7.5-3.358 7.5-7.5v-19.2c0-4.142-3.358-7.5-7.5-7.5z"/><path d="m159.5 488c-4.142 0-7.5 3.358-7.5 7.5v8c0 4.142 3.358 7.5 7.5 7.5s7.5-3.358 7.5-7.5v-8c0-4.142-3.358-7.5-7.5-7.5z"/><path d="m223.978 384c-4.142 0-7.5 3.358-7.5 7.5v8c0 4.142 3.358 7.5 7.5 7.5s7.5-3.358 7.5-7.5v-8c0-4.142-3.358-7.5-7.5-7.5z"/><path d="m223.978 430.4c-4.142 0-7.5 3.358-7.5 7.5v19.2c0 4.142 3.358 7.5 7.5 7.5s7.5-3.358 7.5-7.5v-19.2c0-4.142-3.358-7.5-7.5-7.5z"/><path d="m223.978 488c-4.142 0-7.5 3.358-7.5 7.5v8c0 4.142 3.358 7.5 7.5 7.5s7.5-3.358 7.5-7.5v-8c0-4.142-3.358-7.5-7.5-7.5z"/><path d="m287.5 384c-4.142 0-7.5 3.358-7.5 7.5v8c0 4.142 3.358 7.5 7.5 7.5s7.5-3.358 7.5-7.5v-8c0-4.142-3.358-7.5-7.5-7.5z"/><path d="m287.5 430.4c-4.142 0-7.5 3.358-7.5 7.5v19.2c0 4.142 3.358 7.5 7.5 7.5s7.5-3.358 7.5-7.5v-19.2c0-4.142-3.358-7.5-7.5-7.5z"/><path d="m287.5 488c-4.142 0-7.5 3.358-7.5 7.5v8c0 4.142 3.358 7.5 7.5 7.5s7.5-3.358 7.5-7.5v-8c0-4.142-3.358-7.5-7.5-7.5z"/><path d="m351.5 384c-4.142 0-7.5 3.358-7.5 7.5v8c0 4.142 3.358 7.5 7.5 7.5s7.5-3.358 7.5-7.5v-8c0-4.142-3.358-7.5-7.5-7.5z"/><path d="m351.5 430.4c-4.142 0-7.5 3.358-7.5 7.5v19.2c0 4.142 3.358 7.5 7.5 7.5s7.5-3.358 7.5-7.5v-19.2c0-4.142-3.358-7.5-7.5-7.5z"/><path d="m351.5 488c-4.142 0-7.5 3.358-7.5 7.5v8c0 4.142 3.358 7.5 7.5 7.5s7.5-3.358 7.5-7.5v-8c0-4.142-3.358-7.5-7.5-7.5z"/></svg>