<?xml version="1.0" encoding="iso-8859-1"?>
<!-- Generator: Adobe Illustrator 19.0.0, SVG Export Plug-In . SVG Version: 6.00 Build 0)  -->
<svg version="1.1" id="Capa_1" xmlns="http://www.w3.org/2000/svg" xmlns:xlink="http://www.w3.org/1999/xlink" x="0px" y="0px"
	 viewBox="0 0 470 470" style="enable-background:new 0 0 470 470;" xml:space="preserve">
<g>
	<rect x="227.5" y="264.597" style="fill:#19ABBF;" width="15" height="60.403"/>
	<path style="fill:#19ABBF;" d="M235,166c-5.061,0-9.178,4.117-9.178,9.178v8.91c3.01-0.376,6.068-0.593,9.178-0.593
		s6.168,0.216,9.178,0.593v-8.91C244.178,170.117,240.061,166,235,166z"/>
	<path style="fill:#19ABBF;" d="M235,198.495c-29.771,0-54.41,22.32-58.106,51.103h2.004c4.143,0,7.5,3.358,7.5,7.5
		s-3.357,7.5-7.5,7.5h-2.5V325H212.5v-60.403h-3.603c-4.143,0-7.5-3.358-7.5-7.5s3.357-7.5,7.5-7.5h84.209
		C289.41,220.815,264.771,198.495,235,198.495z"/>
	<rect x="257.5" y="264.597" style="fill:#19ABBF;" width="36.103" height="60.403"/>
	<rect x="176.397" y="340" style="fill:#19ABBF;" width="117.205" height="15"/>
	<path style="fill:#FF9A66;" d="M410,411.3V425h13.715C421.452,418.618,416.381,413.565,410,411.3z"/>
	<path style="fill:#FF9A66;" d="M46.285,425H60v-13.7C53.619,413.565,48.548,418.618,46.285,425z"/>
	<rect x="105" y="410" style="fill:#FF9A66;" width="260" height="15"/>
	<path style="fill:#FFBC99;" d="M372.5,151c4.143,0,7.5,3.358,7.5,7.5V455h15V136h-22.5V151z"/>
	<path style="fill:#FFBC99;" d="M75,136v319h15v-52.481c0-0.039,0-244.019,0-244.019c0-4.142,3.357-7.5,7.5-7.5v-15H75z"/>
	<path style="fill:#FFBC99;" d="M443.71,15H26.29c3.096,8.729,11.433,15,21.21,15h0.09c0.016,0,374.804,0,374.804,0
		c0.019,0,0.106,0,0.106,0C432.277,30,440.614,23.729,443.71,15z"/>
	<path style="fill:#FF382E;" d="M416.469,45H53.531l-16.703,76h396.346L416.469,45z M312.5,90C300.094,90,290,79.907,290,67.5
		c0-4.142,3.357-7.5,7.5-7.5s7.5,3.358,7.5,7.5c0,4.136,3.364,7.5,7.5,7.5s7.5-3.364,7.5-7.5c0-4.142,3.357-7.5,7.5-7.5
		s7.5,3.358,7.5,7.5C335,79.907,324.906,90,312.5,90z M372.5,106c-12.406,0-22.5-10.093-22.5-22.5c0-4.142,3.357-7.5,7.5-7.5
		s7.5,3.358,7.5,7.5c0,4.136,3.364,7.5,7.5,7.5s7.5-3.364,7.5-7.5c0-4.142,3.357-7.5,7.5-7.5s7.5,3.358,7.5,7.5
		C395,95.907,384.906,106,372.5,106z"/>
	<path style="fill:#1C1918;" d="M462.5,0H7.5C3.357,0,0,3.358,0,7.5S3.357,15,7.5,15h3.255c2.882,14.14,13.746,25.407,27.664,28.882
		L20.175,126.89c-0.487,2.219,0.057,4.539,1.48,6.31s3.573,2.8,5.845,2.8H60v259.755c-17.096,3.484-30,18.635-30,36.745
		c0,4.142,3.357,7.5,7.5,7.5H60v15H37.5c-4.143,0-7.5,3.358-7.5,7.5s3.357,7.5,7.5,7.5h90c4.143,0,7.5-3.358,7.5-7.5
		s-3.357-7.5-7.5-7.5H105v-15h260v15h-22.5c-4.143,0-7.5,3.358-7.5,7.5s3.357,7.5,7.5,7.5h90c4.143,0,7.5-3.358,7.5-7.5
		s-3.357-7.5-7.5-7.5H410v-15h22.5c4.143,0,7.5-3.358,7.5-7.5c0-18.11-12.904-33.261-30-36.745V136h32.5
		c2.271,0,4.421-1.03,5.845-2.8s1.968-4.091,1.48-6.31l-18.244-83.008C445.499,40.407,456.364,29.14,459.245,15h3.255
		c4.143,0,7.5-3.358,7.5-7.5S466.643,0,462.5,0z M410,411.3c6.381,2.264,11.452,7.318,13.715,13.7H410V411.3z M395,455h-15V158.5
		c0-4.142-3.357-7.5-7.5-7.5s-7.5,3.358-7.5,7.5V395H105V158.5c0-4.142-3.357-7.5-7.5-7.5s-7.5,3.358-7.5,7.5v243.981
		C90,402.519,90,455,90,455H75V136h152.5v16.197c-9.671,3.164-16.678,12.267-16.678,22.981v12.416
		c-28.74,10.027-49.425,37.387-49.425,69.503V362.5c0,4.142,3.357,7.5,7.5,7.5h132.205c4.143,0,7.5-3.358,7.5-7.5V257.097
		c0-32.116-20.684-59.476-49.425-69.503v-12.416c0-10.714-7.007-19.817-16.678-22.981V136H395V455z M105,410h260v15H105V410z
		 M293.603,325H257.5v-60.403h36.103V325z M176.397,340h117.205v15H176.397V340z M242.5,264.597V325h-15v-60.403H242.5z
		 M208.897,249.597c-4.143,0-7.5,3.358-7.5,7.5s3.357,7.5,7.5,7.5h3.603V325h-36.103v-60.403h2.5c4.143,0,7.5-3.358,7.5-7.5
		s-3.357-7.5-7.5-7.5h-2.004c3.696-28.782,28.335-51.103,58.106-51.103s54.41,22.32,58.106,51.103H208.897z M244.178,184.087
		c-3.01-0.376-6.068-0.593-9.178-0.593s-6.168,0.216-9.178,0.593v-8.91c0-5.061,4.117-9.178,9.178-9.178s9.178,4.117,9.178,9.178
		V184.087z M60,425H46.285c2.263-6.382,7.334-11.435,13.715-13.7V425z M36.827,121l16.703-76h362.939l16.704,76H36.827z M422.5,30
		h-0.087c-0.019,0-374.807,0-374.807,0c-0.016,0-0.105,0-0.105,0c-9.777,0-18.114-6.271-21.21-15h417.42
		C440.614,23.729,432.277,30,422.5,30z"/>
	<path style="fill:#1C1918;" d="M387.5,76c-4.143,0-7.5,3.358-7.5,7.5c0,4.136-3.364,7.5-7.5,7.5s-7.5-3.364-7.5-7.5
		c0-4.142-3.357-7.5-7.5-7.5s-7.5,3.358-7.5,7.5c0,12.407,10.094,22.5,22.5,22.5S395,95.907,395,83.5
		C395,79.358,391.643,76,387.5,76z"/>
	<path style="fill:#1C1918;" d="M327.5,60c-4.143,0-7.5,3.358-7.5,7.5c0,4.136-3.364,7.5-7.5,7.5s-7.5-3.364-7.5-7.5
		c0-4.142-3.357-7.5-7.5-7.5s-7.5,3.358-7.5,7.5c0,12.407,10.094,22.5,22.5,22.5S335,79.907,335,67.5
		C335,63.358,331.643,60,327.5,60z"/>
</g>
<g>
</g>
<g>
</g>
<g>
</g>
<g>
</g>
<g>
</g>
<g>
</g>
<g>
</g>
<g>
</g>
<g>
</g>
<g>
</g>
<g>
</g>
<g>
</g>
<g>
</g>
<g>
</g>
<g>
</g>
</svg>
