<?xml version="1.0" encoding="iso-8859-1"?>
<!-- Generator: Adobe Illustrator 19.0.0, SVG Export Plug-In . SVG Version: 6.00 Build 0)  -->
<svg version="1.1" id="Capa_1" xmlns="http://www.w3.org/2000/svg" xmlns:xlink="http://www.w3.org/1999/xlink" x="0px" y="0px"
	 viewBox="0 0 470.004 470.004" style="enable-background:new 0 0 470.004 470.004;" xml:space="preserve">
<g>
	<path style="fill:#3F3736;" d="M374.329,414.8h-39.958c-9.989,0-18.761,6.343-22.067,14.964h83.207
		C392.415,421.054,384.089,414.8,374.329,414.8z"/>
	<path style="fill:#3F3736;" d="M135.631,414.8H95.673c-9.76,0-18.086,6.254-21.181,14.964h82.32
		C153.717,421.054,145.391,414.8,135.631,414.8z"/>
	<rect x="215.066" y="130.131" style="fill:#3F3736;" width="39.871" height="44.928"/>
	<path style="fill:#3F3736;" d="M46.153,60.216l1.96,5.878c1.585,4.755,7.594,9.085,12.607,9.085h44.953c4.142,0,7.5,3.358,7.5,7.5
		c0,0.003,15,0.003,15,0.003c0-4.145,3.358-7.503,7.5-7.503h273.609c5.013,0,11.022-4.331,12.607-9.085l1.96-5.878H46.153z"/>
	<rect x="381.829" y="190.059" style="fill:#FF382E;" width="19.953" height="14.964"/>
	<rect x="68.22" y="190.059" style="fill:#FF382E;" width="19.953" height="14.964"/>
	<rect x="143.131" y="190.059" style="fill:#FF382E;" width="183.74" height="14.964"/>
	<path style="fill:#FF382E;" d="M103.173,399.8h24.958V152.631c0-4.142,3.358-7.5,7.5-7.5c0.001,0,0.001-15,0.001-15h-32.459V399.8z
		"/>
	<path style="fill:#FF382E;" d="M334.372,145.132c4.142,0.001,7.499,3.358,7.499,7.5l0,247.169h24.958V130.131h-32.457V145.132z"/>
	<path style="fill:#FF382E;" d="M105.673,90.18H68.22v17.47c0,4.125,3.357,7.482,7.484,7.482h318.594
		c4.127,0,7.484-3.356,7.484-7.482V90.18H135.673c-4.141,0-7.498-3.356-7.5-7.497h-15C113.171,86.824,109.814,90.18,105.673,90.18z"
		/>
	<path style="fill:#1C1918;" d="M465.02,25.677c-3.9-1.391-8.192,0.645-9.583,4.546c-3.197,8.968-11.709,14.993-21.181,14.993
		H35.746c-9.471,0-17.982-6.023-21.18-14.988c-1.391-3.901-5.682-5.939-9.583-4.544c-3.901,1.392-5.936,5.682-4.544,9.583
		C5.129,48.418,16.707,57.761,30.2,59.796l3.681,11.042c2.821,8.46,10.619,15.47,19.338,18.153v18.658
		c0,12.396,10.086,22.482,22.484,22.482h12.469v44.928H60.72c-4.142,0-7.5,3.358-7.5,7.5v29.964c0,4.142,3.358,7.5,7.5,7.5h27.453
		v180.532c-17.078,3.483-29.969,18.619-29.969,36.709c0,4.142,3.358,7.5,7.5,7.5H165.6c4.142,0,7.5-3.358,7.5-7.5
		c0-18.09-12.89-33.226-29.969-36.709V220.023h183.74l0,180.529c-17.407,3.508-30.967,18.896-30.967,36.712
		c0,4.142,3.358,7.5,7.5,7.5h100.894c4.142,0,7.5-3.358,7.5-7.5c0-18.09-12.89-33.226-29.969-36.709V220.023h27.453
		c4.142,0,7.5-3.358,7.5-7.5v-29.964c0-4.142-3.358-7.5-7.5-7.5h-27.453v-44.928h12.469c12.398,0,22.484-10.085,22.484-22.482
		V88.991c8.719-2.683,16.517-9.693,19.337-18.153l3.682-11.042c13.497-2.035,25.076-11.381,29.765-24.536
		C470.957,31.358,468.922,27.068,465.02,25.677z M409.282,75.18H135.673c-4.142,0-7.5,3.358-7.5,7.5c0.002,4.144,3.359,7.5,7.5,7.5
		h266.109v17.47c0,4.125-3.357,7.482-7.484,7.482H75.704c-4.127,0-7.484-3.356-7.484-7.482V90.18h37.453
		c4.141,0,7.498-3.356,7.5-7.497c0-4.145-3.358-7.503-7.5-7.503H60.72c-5.013,0-11.022-4.331-12.607-9.085l-1.96-5.878H423.85
		l-1.96,5.878C420.305,70.849,414.295,75.18,409.282,75.18z M401.782,205.023h-19.953v-14.964h19.953V205.023z M312.304,429.764
		c3.307-8.621,12.078-14.964,22.067-14.964h39.958c9.76,0,18.086,6.254,21.181,14.964H312.304z M74.492,429.764
		c3.095-8.71,11.421-14.964,21.181-14.964h39.958c9.76,0,18.086,6.254,21.181,14.964H74.492z M68.22,190.059h19.953v14.964H68.22
		V190.059z M215.066,175.059v-44.928h39.871v44.928H215.066z M200.066,130.131v44.928h-56.935v-22.428
		c0-4.142-3.357-7.499-7.499-7.5c-4.143,0-7.501,3.358-7.501,7.5V399.8h-24.958V130.131H200.066z M143.131,190.059h183.74l0,14.964
		h-183.74V190.059z M366.829,399.8h-24.958l0-247.169c0-4.142-3.357-7.499-7.499-7.5c-4.143,0-7.501,3.358-7.501,7.5l0,22.428
		h-56.934v-44.928h96.893V399.8z"/>
</g>
<g>
</g>
<g>
</g>
<g>
</g>
<g>
</g>
<g>
</g>
<g>
</g>
<g>
</g>
<g>
</g>
<g>
</g>
<g>
</g>
<g>
</g>
<g>
</g>
<g>
</g>
<g>
</g>
<g>
</g>
</svg>
